<svg width="73" height="73" viewBox="0 0 73 73" fill="none" xmlns="http://www.w3.org/2000/svg">
    <rect width="73" height="73" rx="17" fill="#202427"/>
    <g clip-path="url(#clip0_649_1386)">
    <path d="M43 29C44.242 29.9315 45.25 31.1393 45.9443 32.5279C46.6385 33.9164 47 35.4475 47 37C47 38.5525 46.6385 40.0836 45.9443 41.4721C45.25 42.8607 44.242 44.0685 43 45" stroke="white" stroke-width="2.75" stroke-linecap="round" stroke-linejoin="round"/>
    <path d="M48.3999 23C50.4878 24.6873 52.1719 26.8203 53.3288 29.2426C54.4857 31.665 55.0862 34.3155 55.0862 37C55.0862 39.6845 54.4857 42.335 53.3288 44.7574C52.1719 47.1798 50.4878 49.3127 48.3999 51" stroke="white" stroke-width="2.75" stroke-linecap="round" stroke-linejoin="round"/>
    <path d="M25 42.9999H21C20.4696 42.9999 19.9609 42.7892 19.5858 42.4142C19.2107 42.0391 19 41.5304 19 40.9999V32.9999C19 32.4695 19.2107 31.9608 19.5858 31.5857C19.9609 31.2107 20.4696 30.9999 21 30.9999H25L32 21.9999C32.1748 21.6604 32.4653 21.3946 32.819 21.2505C33.1727 21.1065 33.5662 21.0937 33.9285 21.2144C34.2908 21.3352 34.598 21.5816 34.7945 21.909C34.991 22.2365 35.0639 22.6234 35 22.9999V50.9999C35.0639 51.3765 34.991 51.7634 34.7945 52.0909C34.598 52.4183 34.2908 52.6647 33.9285 52.7855C33.5662 52.9062 33.1727 52.8934 32.819 52.7494C32.4653 52.6053 32.1748 52.3395 32 51.9999L25 42.9999Z" stroke="white" stroke-width="2.75" stroke-linecap="round" stroke-linejoin="round"/>
    </g>
    <defs>
    <clipPath id="clip0_649_1386">
    <rect width="48" height="48" fill="white" transform="translate(13 13)"/>
    </clipPath>
    </defs>
    </svg>