<svg width="64" height="64" viewBox="0 0 64 64" fill="none" xmlns="http://www.w3.org/2000/svg">
<rect width="64" height="64" rx="12" fill="#202427"/>
<path d="M22.5552 27.5933C22.5552 26.2573 23.0859 24.9759 24.0307 24.0312C24.9754 23.0864 26.2568 22.5557 27.5928 22.5557H43.962C44.6235 22.5557 45.2786 22.686 45.8898 22.9391C46.501 23.1923 47.0563 23.5634 47.5241 24.0312C47.9919 24.499 48.363 25.0543 48.6162 25.6655C48.8693 26.2767 48.9996 26.9318 48.9996 27.5933V43.9624C48.9996 44.624 48.8693 45.2791 48.6162 45.8903C48.363 46.5015 47.9919 47.0568 47.5241 47.5246C47.0563 47.9924 46.501 48.3635 45.8898 48.6166C45.2786 48.8698 44.6235 49.0001 43.962 49.0001H27.5928C26.9313 49.0001 26.2762 48.8698 25.665 48.6166C25.0538 48.3635 24.4985 47.9924 24.0307 47.5246C23.5629 47.0568 23.1918 46.5015 22.9386 45.8903C22.6855 45.2791 22.5552 44.624 22.5552 43.9624V27.5933Z" stroke="white" stroke-width="3" stroke-linecap="round" stroke-linejoin="round"/>
<path d="M16.9116 40.9477C16.3323 40.6174 15.8505 40.1402 15.5149 39.564C15.1792 38.9879 15.0016 38.3334 15 37.6667V18.7778C15 16.7 16.7 15 18.7778 15H37.6667C39.0833 15 39.854 15.7272 40.5 16.8889" stroke="white" stroke-width="3" stroke-linecap="round" stroke-linejoin="round"/>
</svg>
