<svg width="64" height="64" viewBox="0 0 64 64" fill="none" xmlns="http://www.w3.org/2000/svg">
<rect width="64" height="64" rx="12" fill="#202427"/>
<path d="M21 15C19.9391 15 18.9217 15.4346 18.1716 16.2082C17.4214 16.9818 17 18.031 17 19.125V25.3125C17 26.9535 16.5786 28.5273 15.8284 29.6877C15.0783 30.8481 14.0609 31.5 13 31.5C14.0609 31.5 15.0783 32.1519 15.8284 33.3123C16.5786 34.4727 17 36.0465 17 37.6875V43.875C17 44.969 17.4214 46.0182 18.1716 46.7918C18.9217 47.5654 19.9391 48 21 48" stroke="white" stroke-width="2" stroke-linecap="round" stroke-linejoin="round"/>
<path d="M42 15C43.0609 15 44.0783 15.4346 44.8284 16.2082C45.5786 16.9818 46 18.031 46 19.125V25.3125C46 26.9535 46.4214 28.5273 47.1716 29.6877C47.9217 30.8481 48.9391 31.5 50 31.5C48.9391 31.5 47.9217 32.1519 47.1716 33.3123C46.4214 34.4727 46 36.0465 46 37.6875V43.875C46 44.969 45.5786 46.0182 44.8284 46.7918C44.0783 47.5654 43.0609 48 42 48" stroke="white" stroke-width="2" stroke-linecap="round" stroke-linejoin="round"/>
</svg>
