<svg width="64" height="64" viewBox="0 0 64 64" fill="none" xmlns="http://www.w3.org/2000/svg">
  <rect width="64" height="64" rx="12" fill="#202427"/>
  <g clip-path="url(#clip0_2204_2562)">
  <path d="M17.3335 21C17.3335 22.4587 18.8787 23.8576 21.6293 24.8891C24.3798 25.9205 28.1103 26.5 32.0002 26.5C35.89 26.5 39.6205 25.9205 42.3711 24.8891C45.1216 23.8576 46.6668 22.4587 46.6668 21C46.6668 19.5413 45.1216 18.1424 42.3711 17.1109C39.6205 16.0795 35.89 15.5 32.0002 15.5C28.1103 15.5 24.3798 16.0795 21.6293 17.1109C18.8787 18.1424 17.3335 19.5413 17.3335 21Z" stroke="white" stroke-width="2.75" stroke-linecap="round" stroke-linejoin="round"/>
  <path d="M17.3335 21V32C17.3335 33.4587 18.8787 34.8576 21.6293 35.8891C24.3798 36.9205 28.1103 37.5 32.0002 37.5C35.89 37.5 39.6205 36.9205 42.3711 35.8891C45.1216 34.8576 46.6668 33.4587 46.6668 32V21" stroke="white" stroke-width="2.75" stroke-linecap="round" stroke-linejoin="round"/>
  <path d="M17.3335 32V43C17.3335 44.4587 18.8787 45.8576 21.6293 46.8891C24.3798 47.9205 28.1103 48.5 32.0002 48.5C35.89 48.5 39.6205 47.9205 42.3711 46.8891C45.1216 45.8576 46.6668 44.4587 46.6668 43V32" stroke="white" stroke-width="2.75" stroke-linecap="round" stroke-linejoin="round"/>
  </g>
  <defs>
  <clipPath id="clip0_2204_2562">
  <rect width="44" height="44" fill="white" transform="translate(10 10)"/>
  </clipPath>
  </defs>
  </svg>
  