<svg width="73" height="73" viewBox="0 0 73 73" fill="none" xmlns="http://www.w3.org/2000/svg">
<rect width="73" height="73" rx="17" fill="#202427"/>
<g clip-path="url(#clip0_649_1375)">
<path d="M35.5645 50.5376C36.0884 51.9485 37.0916 53.1305 38.3987 53.8769C39.7057 54.6232 41.2335 54.8865 42.715 54.6207C44.1964 54.3549 45.5374 53.5769 46.5034 52.4227C47.4695 51.2685 47.9992 49.8115 48 48.3064V38.8336L37 32.6919" stroke="white" stroke-width="2.75" stroke-linecap="round" stroke-linejoin="round"/>
<path d="M24.5591 42.5255C23.5983 43.6847 23.0757 45.1448 23.0826 46.6504C23.0895 48.156 23.6254 49.6113 24.5967 50.7617C25.568 51.9122 26.9128 52.6845 28.3959 52.9438C29.8791 53.203 31.4061 52.9326 32.7101 52.1798L40.6667 47.5341V34.7998" stroke="white" stroke-width="2.75" stroke-linecap="round" stroke-linejoin="round"/>
<path d="M26.0001 28.9882C23.4499 28.5556 20.8906 29.7124 19.5211 32.0847C18.6767 33.5474 18.4479 35.2855 18.8849 36.9168C19.3218 38.5481 20.3888 39.9391 21.8512 40.7839L29.6667 45.3929L40.6667 39.2549" stroke="white" stroke-width="2.75" stroke-linecap="round" stroke-linejoin="round"/>
<path d="M38.4355 23.4629C37.9115 22.0519 36.9083 20.8699 35.6013 20.1235C34.2942 19.3772 32.7665 19.1139 31.285 19.3797C29.8035 19.6455 28.4626 20.4235 27.4965 21.5777C26.5305 22.7319 26.0008 24.1889 26 25.694V34.9835L37 41.3085" stroke="white" stroke-width="2.75" stroke-linecap="round" stroke-linejoin="round"/>
<path d="M49.4409 31.4741C50.4016 30.3148 50.9243 28.8547 50.9174 27.3491C50.9105 25.8435 50.3746 24.3883 49.4033 23.2378C48.432 22.0874 47.0872 21.315 45.604 21.0558C44.1209 20.7966 42.5939 21.067 41.2899 21.8198L33.3333 26.4654V39.1998" stroke="white" stroke-width="2.75" stroke-linecap="round" stroke-linejoin="round"/>
<path d="M47.9999 44.8871C50.5501 45.3198 53.1094 44.1629 54.4789 41.7906C55.3233 40.328 55.5521 38.5898 55.1151 36.9585C54.6782 35.3272 53.6112 33.9362 52.1488 33.0914L44.2508 28.4824L33.3333 34.7524" stroke="white" stroke-width="2.75" stroke-linecap="round" stroke-linejoin="round"/>
</g>
<defs>
<clipPath id="clip0_649_1375">
<rect width="44" height="44" fill="white" transform="translate(15 15)"/>
</clipPath>
</defs>
</svg>
