<svg width="73" height="73" viewBox="0 0 73 73" fill="none" xmlns="http://www.w3.org/2000/svg">
<rect width="73" height="73" rx="17" fill="#202427"/>
<g clip-path="url(#clip0_2094_1350)">
<path d="M40.6665 20.5V27.8333C40.6665 28.3196 40.8597 28.7859 41.2035 29.1297C41.5473 29.4735 42.0136 29.6667 42.4998 29.6667H49.8332" stroke="white" stroke-width="2.75" stroke-linecap="round" stroke-linejoin="round"/>
<path d="M24.1665 37V24.1667C24.1665 23.1942 24.5528 22.2616 25.2404 21.5739C25.9281 20.8863 26.8607 20.5 27.8332 20.5H40.6665L49.8332 29.6667V37" stroke="white" stroke-width="2.75" stroke-linecap="round" stroke-linejoin="round"/>
<path d="M24.1665 42.5V53.5H25.9998C26.9723 53.5 27.9049 53.1137 28.5926 52.4261C29.2802 51.7384 29.6665 50.8058 29.6665 49.8333V46.1667C29.6665 45.1942 29.2802 44.2616 28.5926 43.5739C27.9049 42.8863 26.9723 42.5 25.9998 42.5H24.1665Z" stroke="white" stroke-width="2.75" stroke-linecap="round" stroke-linejoin="round"/>
<path d="M51.6665 45.25C51.6665 44.5207 51.3768 43.8212 50.861 43.3055C50.3453 42.7897 49.6458 42.5 48.9165 42.5C48.1872 42.5 47.4877 42.7897 46.972 43.3055C46.4562 43.8212 46.1665 44.5207 46.1665 45.25V50.75C46.1665 51.4793 46.4562 52.1788 46.972 52.6945C47.4877 53.2103 48.1872 53.5 48.9165 53.5C49.6458 53.5 50.3453 53.2103 50.861 52.6945C51.3768 52.1788 51.6665 51.4793 51.6665 50.75" stroke="white" stroke-width="2.75" stroke-linecap="round" stroke-linejoin="round"/>
<path d="M37.9165 42.5C38.6458 42.5 39.3453 42.7897 39.861 43.3055C40.3768 43.8212 40.6665 44.5207 40.6665 45.25V50.75C40.6665 51.4793 40.3768 52.1788 39.861 52.6945C39.3453 53.2103 38.6458 53.5 37.9165 53.5C37.1872 53.5 36.4877 53.2103 35.972 52.6945C35.4562 52.1788 35.1665 51.4793 35.1665 50.75V45.25C35.1665 44.5207 35.4562 43.8212 35.972 43.3055C36.4877 42.7897 37.1872 42.5 37.9165 42.5Z" stroke="white" stroke-width="2.75" stroke-linecap="round" stroke-linejoin="round"/>
</g>
<defs>
<clipPath id="clip0_2094_1350">
<rect width="44" height="44" fill="white" transform="translate(15 15)"/>
</clipPath>
</defs>
</svg>
