<svg width="64" height="64" viewBox="0 0 64 64" fill="none" xmlns="http://www.w3.org/2000/svg">
<rect width="64" height="64" rx="12" fill="#202427"/>
<g clip-path="url(#clip0_2600_1386)">
<path d="M15.971 34.6226C14.644 35.4541 13.557 36.6175 12.8173 37.9977C12.0776 39.378 11.7109 40.9274 11.7533 42.4928C11.7957 44.0582 12.2459 45.5855 13.0593 46.9236C13.8727 48.2618 15.0212 49.3646 16.3912 50.123C17.7613 50.8814 19.3056 51.2692 20.8714 51.2481C22.4372 51.227 23.9705 50.7976 25.3196 50.0026C26.6687 49.2075 27.787 48.0741 28.564 46.7145C29.341 45.3549 29.7498 43.816 29.75 42.2501H43.25" stroke="white" stroke-width="2" stroke-linecap="round" stroke-linejoin="round"/>
<path d="M38.8985 50.1295C40.1006 50.793 41.4386 51.1726 42.81 51.2394C44.1815 51.3061 45.55 51.0582 46.8108 50.5145C48.0717 49.9709 49.1915 49.146 50.0844 48.1029C50.9773 47.0598 51.6198 45.8263 51.9625 44.4967C52.3053 43.1671 52.3393 41.7767 52.0619 40.432C51.7846 39.0872 51.2032 37.8238 50.3623 36.7383C49.5215 35.6529 48.4434 34.7742 47.2106 34.1696C45.9778 33.5649 44.6231 33.2504 43.25 33.25C41.6615 33.25 40.046 33.6527 38.75 34.375L32 22" stroke="white" stroke-width="2" stroke-linecap="round" stroke-linejoin="round"/>
<path d="M41 22C41 19.6131 40.0518 17.3239 38.364 15.636C36.6761 13.9482 34.3869 13 32 13C29.6131 13 27.3239 13.9482 25.636 15.636C23.9482 17.3239 23 19.6131 23 22C23 25.3885 24.7325 28.3405 27.5 29.875L20.75 42.25" stroke="white" stroke-width="2" stroke-linecap="round" stroke-linejoin="round"/>
</g>
<defs>
<clipPath id="clip0_2600_1386">
<rect width="54" height="54" fill="white" transform="translate(5 4)"/>
</clipPath>
</defs>
</svg>
