<svg width="16" height="16" viewBox="0 0 16 16" fill="none" xmlns="http://www.w3.org/2000/svg">
    <g clip-path="url(#clip0_2523_1415)">
    <path fill-rule="evenodd" clip-rule="evenodd" d="M10.3127 0.0644531C10.5897 0.0644531 10.8118 0.288404 10.8382 0.56256C11.0744 3.00799 13.0322 4.95409 15.4921 5.18894C15.768 5.21527 15.9932 5.43601 15.9932 5.71142V10.3161C15.9932 10.5915 15.768 10.8122 15.4921 10.8386C13.0322 11.0735 11.0744 13.0196 10.8382 15.465C10.8118 15.7391 10.5897 15.9631 10.3127 15.9631H5.68059C5.40354 15.9631 5.18149 15.7391 5.155 15.465C4.91876 13.0196 2.96104 11.0735 0.50107 10.8386C0.225283 10.8122 0 10.5915 0 10.3161V5.71142C0 5.43601 0.225284 5.21527 0.501071 5.18894C2.96104 4.95409 4.91876 3.00799 5.155 0.562559C5.18149 0.288404 5.40354 0.0644531 5.68059 0.0644531H10.3127ZM3.21122 8.00031C3.21122 10.6456 5.36596 12.79 8.02399 12.79C10.682 12.79 12.8368 10.6456 12.8368 8.00031C12.8368 5.35504 10.682 3.21062 8.02399 3.21062C5.36596 3.21062 3.21122 5.35504 3.21122 8.00031Z" fill="black"/>
    </g>
    <defs>
    <clipPath id="clip0_2523_1415">
    <rect width="16" height="16" fill="white"/>
    </clipPath>
    </defs>
    </svg>
    