<svg width="16" height="16" viewBox="0 0 211 148" fill="none" xmlns="http://www.w3.org/2000/svg">
    <path fill-rule="evenodd" clip-rule="evenodd"
        d="M38.4813 0L38.1079 3.84965C37.2922 12.2575 40.2483 20.2 45.6761 26.1041H35.3369V28.0742C35.3369 44.3953 49.1661 57.6261 66.2253 57.6261H126.434V61.5663C126.434 88.768 148.54 110.819 175.809 110.819H194.571C203.298 110.819 210.371 103.763 210.371 95.0584L210.371 55.6134L210.371 55.5328C210.304 39.868 200.329 29.6 181.351 26.1573L181.285 26.1041L38.4813 0ZM184.45 86.1929C189.903 86.1929 194.325 81.7826 194.325 76.3422C194.325 70.9019 189.903 66.4916 184.45 66.4916C178.996 66.4916 174.575 70.9019 174.575 76.3422C174.575 81.7826 178.996 86.1929 184.45 86.1929Z"
        fill="black" />
    <path
        d="M64.9617 66.4916H118.534C118.534 95.615 145.298 111.493 160.148 116.047C162.501 116.768 164.946 117.046 167.404 117.185L194.202 118.7C193.68 135.653 179.738 147.267 162.617 147.267C149.765 147.267 138.552 145.896 127.122 144.498C109.284 142.317 90.9165 140.072 64.9617 142.871L38.702 147.267C21.5119 150.714 4.51697 141.793 0 124.977L20.0051 119.63C29.0609 117.21 35.3363 109.089 35.3363 99.7374L35.3367 96.0435C35.3367 79.7224 48.6003 66.4916 64.9617 66.4916Z"
        fill="black" />
    <path
        d="M6.02318 85.4351C6.02318 74.9729 14.5255 66.4916 25.0136 66.4916C25.4331 66.4916 25.7732 66.8309 25.7732 67.2494V86.1928H6.02318V85.4351Z"
        fill="black" />
</svg>
    