<svg width="16" height="16" viewBox="0 0 16 16" fill="none" xmlns="http://www.w3.org/2000/svg">
    <path d="M9.3335 2V4.66667C9.3335 4.84348 9.40373 5.01305 9.52876 5.13807C9.65378 5.2631 9.82335 5.33333 10.0002 5.33333H12.6668" stroke="black" stroke-linecap="round" stroke-linejoin="round"/>
    <path d="M6.66683 14H4.66683C4.31321 14 3.97407 13.8595 3.72402 13.6095C3.47397 13.3594 3.3335 13.0203 3.3335 12.6667V3.33333C3.3335 2.97971 3.47397 2.64057 3.72402 2.39052C3.97407 2.14048 4.31321 2 4.66683 2H9.3335L12.6668 5.33333V7.66667" stroke="black" stroke-linecap="round" stroke-linejoin="round"/>
    <path d="M6 6H6.66667" stroke="black" stroke-linecap="round" stroke-linejoin="round"/>
    <path d="M6 8.66675H7.66667" stroke="black" stroke-linecap="round" stroke-linejoin="round"/>
    <path d="M6 11.3333H6.66667" stroke="black" stroke-linecap="round" stroke-linejoin="round"/>
    <path d="M9.3335 14V11.3333C9.3335 10.9797 9.47397 10.6406 9.72402 10.3905C9.97407 10.1405 10.3132 10 10.6668 10C11.0205 10 11.3596 10.1405 11.6096 10.3905C11.8597 10.6406 12.0002 10.9797 12.0002 11.3333V14" stroke="black" stroke-linecap="round" stroke-linejoin="round"/>
    <path d="M9.3335 12.6667H12.0002" stroke="black" stroke-linecap="round" stroke-linejoin="round"/>
    <path d="M14 10V14" stroke="black" stroke-linecap="round" stroke-linejoin="round"/>
    </svg>
    