<svg width="216" height="216" viewBox="0 0 216 216" fill="none" xmlns="http://www.w3.org/2000/svg">
<rect width="215.861" height="215.861" rx="34" fill="black"/>
<path fill-rule="evenodd" clip-rule="evenodd" d="M65.0287 59.3618L64.7904 61.8183C64.2699 67.1834 66.1562 72.2515 69.6197 76.0189H63.0222V77.2761C63.0222 87.6906 71.8467 96.1332 82.7323 96.1332H121.152V98.6475C121.152 116.005 135.257 130.076 152.658 130.076H164.63C170.199 130.076 174.712 125.573 174.712 120.019L174.712 94.8489L174.712 94.7975C174.67 84.8017 168.304 78.2497 156.194 76.0529L156.152 76.0189L65.0287 59.3618ZM158.172 114.362C161.652 114.362 164.473 111.548 164.473 108.076C164.473 104.605 161.652 101.79 158.172 101.79C154.691 101.79 151.87 104.605 151.87 108.076C151.87 111.548 154.691 114.362 158.172 114.362Z" fill="white"/>
<path d="M81.9259 101.79H116.11C116.11 120.374 133.189 130.506 142.664 133.412C144.166 133.872 145.726 134.049 147.295 134.138L164.394 135.105C164.061 145.923 155.165 153.333 144.24 153.333C136.039 153.333 128.884 152.458 121.591 151.567C110.208 150.175 98.4878 148.742 81.9259 150.528L65.1695 153.333C54.2005 155.533 43.3559 149.841 40.4736 139.11L53.239 135.698C59.0175 134.154 63.0218 128.972 63.0218 123.005L63.0221 120.647C63.0221 110.233 71.4856 101.79 81.9259 101.79Z" fill="white"/>
<path d="M44.317 113.878C44.317 107.202 49.7424 101.79 56.4349 101.79C56.7026 101.79 56.9196 102.007 56.9196 102.274V114.362H44.317V113.878Z" fill="white"/>
</svg>
