<svg width="80" height="80" viewBox="0 0 80 80" fill="none" xmlns="http://www.w3.org/2000/svg">
<path d="M51.7446 26.8669C33.3489 30.0894 26.7414 19.6228 25.5513 17.3771C25.4238 17.1364 25.5136 16.8556 25.7504 16.7211C28.2948 15.2755 42.5367 8.14385 59.8244 18.5803C59.8244 18.5803 66.0652 17.824 70.4752 19.6611C74.1643 21.198 76.3198 25.0904 74.8824 27.5874C73.5345 29.9288 65.1304 31.7257 64.2316 36.2343C63.0261 42.2817 69.4992 50.9046 61.2935 50.2854C54.9084 49.8036 46.6116 51.0543 41.4611 54.9692C35.0577 59.8364 30.8458 66.8977 28.6068 66.4983C24.5669 65.7778 13.5489 39.4769 41.0938 34.4329" stroke="#FF8536" stroke-width="5" stroke-linecap="round"/>
<path d="M14.7216 46.3223C14.7216 48.4782 12.9266 50.3074 10.6108 50.3074C8.29502 50.3074 6.5 48.4782 6.5 46.3223C6.5 44.1664 8.29502 42.3371 10.6108 42.3371C12.9266 42.3371 14.7216 44.1664 14.7216 46.3223Z" stroke="#FF8536" stroke-width="5"/>
</svg>
